<svg width="666" height="666" viewBox="0 0 666 666" fill="none" xmlns="http://www.w3.org/2000/svg">
<path d="M476.815 65.2428C478.801 61.5443 477.522 56.9268 473.857 54.8801C415.541 22.3169 348.545 10.8379 283.273 22.3574C215.558 34.3082 153.796 70.2881 108.3 124.29C62.8048 178.292 36.3288 247.046 33.2933 319.075C30.2578 391.103 50.8464 462.044 91.6214 520.054C132.397 578.065 190.89 619.632 257.336 637.816C323.781 656.001 394.157 649.701 456.712 619.97C519.267 590.238 570.215 538.874 601.05 474.454C630.781 412.341 640.078 341.714 627.615 273.587C626.853 269.417 622.742 266.784 618.61 267.728V267.728C614.594 268.646 612.06 272.606 612.801 276.658C624.614 341.331 615.78 408.372 587.558 467.334C558.275 528.512 509.891 577.29 450.485 605.525C391.078 633.76 324.245 639.742 261.144 622.473C198.043 605.204 142.494 565.729 103.771 510.639C65.0487 455.549 45.4964 388.178 48.3792 319.775C51.2619 251.373 76.4052 186.079 119.611 134.795C162.817 83.5119 221.469 49.343 285.776 37.9938C347.426 27.1135 410.695 37.8376 465.864 68.3774C469.76 70.5343 474.708 69.1662 476.815 65.2428V65.2428Z" fill="white"/>
<line x1="620.683" y1="273.367" x2="36.6832" y2="565.367" stroke="white" stroke-width="12"/>
</svg>
