<svg width="1024" height="1024" viewBox="0 0 1024 1024" fill="none" xmlns="http://www.w3.org/2000/svg">
<path d="M655.815 244.243C657.801 240.544 656.522 235.927 652.857 233.88C594.541 201.317 527.545 189.838 462.273 201.357C394.558 213.308 332.796 249.288 287.3 303.29C241.805 357.292 215.329 426.046 212.293 498.075C209.258 570.103 229.846 641.044 270.621 699.054C311.397 757.065 369.89 798.632 436.336 816.816C502.781 835.001 573.157 828.701 635.712 798.97C698.267 769.238 749.215 717.874 780.05 653.454C809.781 591.341 819.078 520.714 806.615 452.587C805.853 448.417 801.742 445.784 797.61 446.728V446.728C793.594 447.646 791.06 451.606 791.801 455.658C803.614 520.331 794.78 587.372 766.558 646.334C737.275 707.512 688.891 756.29 629.485 784.525C570.078 812.76 503.245 818.742 440.144 801.473C377.043 784.204 321.494 744.729 282.771 689.639C244.049 634.549 224.496 567.178 227.379 498.775C230.262 430.373 255.405 365.079 298.611 313.795C341.817 262.512 400.469 228.343 464.776 216.994C526.426 206.114 589.695 216.838 644.864 247.377C648.76 249.534 653.708 248.166 655.815 244.243V244.243Z" fill="black"/>
<line x1="799.683" y1="452.367" x2="215.683" y2="744.367" stroke="black" stroke-width="12"/>
</svg>
